<svg width="28.333252" height="28.333252" viewBox="0 0 28.3333 28.3333" fill="none" xmlns="http://www.w3.org/2000/svg" xmlns:xlink="http://www.w3.org/1999/xlink">
	<desc>
			Created with Pixso.
	</desc>
	<defs/>
	<path id="Vector" d="M14.16 0C21.99 0 28.33 6.34 28.33 14.16C28.33 21.99 21.99 28.33 14.16 28.33C6.34 28.33 0 21.99 0 14.16L2.83 14.16C2.83 20.42 7.9 25.5 14.16 25.5C20.42 25.5 25.5 20.42 25.5 14.16C25.5 7.9 20.42 2.83 14.16 2.83C10.27 2.83 6.83 4.79 4.79 7.79L8.5 7.79L8.5 10.62L0 10.62L0 2.12L2.83 2.12L2.83 5.66C5.41 2.22 9.53 0 14.16 0ZM15.58 7.08L15.58 13.57L20.17 18.17L18.17 20.17L12.75 14.75L12.75 7.08L15.58 7.08Z" fill="#000000" fill-opacity="1.000000" fill-rule="nonzero"/>
</svg>
