<svg width="24.000000" height="24.000000" viewBox="0 0 24 24" fill="none" xmlns="http://www.w3.org/2000/svg" xmlns:xlink="http://www.w3.org/1999/xlink">
	<desc>
			Created with Pixso.
	</desc>
	<defs>
		<clipPath id="clip105_375">
			<rect id="Home Icon" rx="0.000000" width="23.000000" height="23.000000" transform="translate(0.500000 0.500000)" fill="white" fill-opacity="0"/>
		</clipPath>
	</defs>
	<rect id="Home Icon" rx="0.000000" width="23.000000" height="23.000000" transform="translate(0.500000 0.500000)" fill="#FFFFFF" fill-opacity="0"/>
	<g clip-path="url(#clip105_375)">
		<path id="Vector" d="M21 20C21 20.26 20.89 20.52 20.7 20.7C20.51 20.89 20.26 21 20 21L4 21C3.73 21 3.48 20.89 3.29 20.7C3.1 20.52 3 20.26 3 20L3 9.49C2.99 9.33 3.03 9.18 3.1 9.05C3.16 8.91 3.26 8.79 3.38 8.7L11.38 2.47C11.56 2.34 11.77 2.26 12 2.26C12.22 2.26 12.43 2.34 12.61 2.47L20.61 8.7C20.73 8.79 20.83 8.91 20.89 9.05C20.96 9.18 21 9.33 21 9.49L21 20ZM19 19L19 9.97L12 4.53L5 9.97L5 19L19 19ZM7 15L17 15L17 17L7 17L7 15Z" fill="#FFFFFF" fill-opacity="1.000000" fill-rule="nonzero"/>
	</g>
</svg>
