<svg width="24.000000" height="24.000000" viewBox="0 0 24 24" fill="none" xmlns="http://www.w3.org/2000/svg" xmlns:xlink="http://www.w3.org/1999/xlink">
	<desc>
			Created with Pixso.
	</desc>
	<defs>
		<clipPath id="clip105_379">
			<rect id="Settings Icon" rx="0.000000" width="23.000000" height="23.000000" transform="translate(0.500000 24.500000) rotate(-90.000000)" fill="white" fill-opacity="0"/>
		</clipPath>
	</defs>
	<rect id="Settings Icon" rx="0.000000" width="23.000000" height="23.000000" transform="translate(0.500000 24.500000) rotate(-90.000000)" fill="#FFFFFF" fill-opacity="0"/>
	<g clip-path="url(#clip105_379)">
		<path id="Vector" d="M14.06 21.78C12.7 22.07 11.29 22.07 9.94 21.78C10.06 20.67 9.7 19.7 8.93 19.39C8.17 19.07 7.22 19.49 6.53 20.37C5.37 19.62 4.38 18.62 3.62 17.46C4.5 16.77 4.92 15.82 4.6 15.06C4.29 14.29 3.32 13.92 2.21 14.06C1.92 12.7 1.92 11.29 2.21 9.94C3.32 10.07 4.29 9.7 4.6 8.93C4.92 8.17 4.5 7.22 3.62 6.53C4.38 5.37 5.37 4.38 6.53 3.62C7.22 4.5 8.17 4.92 8.93 4.6C9.7 4.29 10.07 3.32 9.94 2.21C11.29 1.92 12.7 1.92 14.06 2.21C13.93 3.32 14.29 4.29 15.06 4.6C15.82 4.92 16.77 4.5 17.46 3.62C18.62 4.38 19.62 5.37 20.37 6.53C19.5 7.22 19.07 8.17 19.39 8.93C19.7 9.7 20.67 10.07 21.78 9.94C22.07 11.29 22.07 12.7 21.78 14.06C20.67 13.93 19.7 14.29 19.39 15.06C19.07 15.82 19.49 16.77 20.37 17.46C19.62 18.62 18.62 19.62 17.46 20.37C16.77 19.5 15.82 19.07 15.06 19.39C14.29 19.7 13.92 20.67 14.06 21.78ZM12.21 20C12.51 18.9 13.21 17.99 14.29 17.54C15.38 17.09 16.51 17.24 17.5 17.8C17.61 17.7 17.7 17.61 17.8 17.5C17.24 16.51 17.09 15.38 17.54 14.29C17.99 13.21 18.9 12.51 20 12.21C20 12.07 20 11.93 20 11.79C18.9 11.48 17.99 10.78 17.54 9.7C17.09 8.61 17.24 7.48 17.8 6.49C17.7 6.39 17.61 6.29 17.5 6.19C16.51 6.75 15.38 6.9 14.29 6.45C13.21 6 12.51 5.1 12.21 4C12.06 3.99 11.93 3.99 11.79 4C11.48 5.1 10.78 6 9.7 6.45C8.61 6.9 7.48 6.75 6.49 6.19C6.39 6.29 6.29 6.39 6.19 6.49C6.75 7.48 6.9 8.61 6.45 9.7C6 10.78 5.09 11.48 4 11.79C3.99 11.93 3.99 12.07 4 12.21C5.09 12.51 6 13.21 6.45 14.29C6.9 15.38 6.75 16.51 6.19 17.5C6.29 17.61 6.39 17.7 6.49 17.8C7.48 17.24 8.61 17.09 9.7 17.54C10.78 17.99 11.48 18.9 11.79 20C11.93 20 12.06 20 12.21 20ZM15 12C15 12.79 14.68 13.55 14.12 14.12C13.55 14.68 12.79 15 12 15C11.2 15 10.44 14.68 9.87 14.12C9.31 13.55 9 12.79 9 12C9 11.2 9.31 10.44 9.87 9.87C10.44 9.31 11.2 9 12 9C12.79 9 13.55 9.31 14.12 9.87C14.68 10.44 15 11.2 15 12ZM13 12C13 11.73 12.89 11.48 12.7 11.29C12.51 11.1 12.26 11 12 11C11.73 11 11.48 11.1 11.29 11.29C11.1 11.48 11 11.73 11 12C11 12.26 11.1 12.52 11.29 12.7C11.48 12.89 11.73 13 12 13C12.26 13 12.51 12.89 12.7 12.7C12.89 12.52 13 12.26 13 12Z" fill="#FFFFFF" fill-opacity="1.000000" fill-rule="nonzero"/>
	</g>
</svg>
