<svg width="25.000000" height="25.000000" viewBox="0 0 25 25" fill="none" xmlns="http://www.w3.org/2000/svg" xmlns:xlink="http://www.w3.org/1999/xlink">
	<desc>
			Created with Pixso.
	</desc>
	<defs/>
	<path id="Vector" d="M5.33 2.25L6.76 4.3C5.02 5.52 3.71 7.27 3.03 9.28C2.34 11.29 2.32 13.47 2.96 15.5C3.6 17.53 4.87 19.3 6.58 20.56C8.3 21.82 10.37 22.49 12.5 22.49C14.62 22.49 16.69 21.82 18.41 20.56C20.12 19.3 21.39 17.53 22.03 15.5C22.67 13.47 22.65 11.29 21.96 9.28C21.28 7.27 19.97 5.52 18.23 4.3L19.66 2.25C21.31 3.41 22.66 4.94 23.58 6.72C24.51 8.5 25 10.48 25 12.5C25 19.4 19.4 25 12.5 25C5.59 25 0 19.4 0 12.5C-0.01 10.48 0.48 8.5 1.41 6.72C2.33 4.94 3.68 3.41 5.33 2.25ZM11.25 12.5L11.25 0L13.75 0L13.75 12.5L11.25 12.5Z" fill="#000000" fill-opacity="1.000000" fill-rule="nonzero"/>
</svg>
